<svg width="249" height="190" viewBox="0 0 249 190" fill="none" xmlns="http://www.w3.org/2000/svg">
<path d="M209.02 189.313L49.5633 189.368C41.5526 189.371 34.3768 185.231 30.3691 178.295C28.3649 174.826 27.3626 171.022 27.3613 167.216C27.36 163.411 28.3601 159.605 30.3614 156.135L110.039 11.0862C114.043 4.14686 121.216 0.00277139 129.226 1.38943e-06C137.237 -0.00276861 144.413 4.13635 148.421 11.073L228.21 156.085C230.208 159.544 231.208 163.345 231.208 167.148C231.208 170.951 230.209 174.757 228.207 178.227C224.204 185.165 217.031 189.31 209.02 189.313H209.02H209.02ZM29.3657 167.213C29.3655 170.677 46.961 163.213 48.7839 166.368C52.4301 172.678 42.2746 187.37 49.5626 187.368C49.5626 187.368 222.833 183.54 226.475 177.227C228.295 174.071 229.205 170.608 229.204 167.146C229.203 163.684 228.291 160.223 226.467 157.067L146.679 12.0555C143.043 5.7633 136.515 1.99748 129.227 2C121.942 2.00252 29.366 163.749 29.3657 167.213H29.3657V167.213Z" fill="#3F3D56"/>
<path d="M175.755 157.324C216.072 157.324 248.755 124.641 248.755 84.3242C248.755 44.0074 216.072 11.3242 175.755 11.3242C135.439 11.3242 102.755 44.0074 102.755 84.3242C102.755 124.641 135.439 157.324 175.755 157.324Z" fill="#F9A826"/>
<path d="M175.769 129.075C179.47 129.075 182.471 126.074 182.471 122.373C182.471 118.671 179.47 115.67 175.769 115.67C172.067 115.67 169.066 118.671 169.066 122.373C169.066 126.074 172.067 129.075 175.769 129.075Z" fill="white"/>
<path d="M175.74 39.575C175.124 43.6662 176.228 44.5222 176.234 62.16C176.24 79.7979 179.899 103.446 175.762 103.447C171.625 103.449 170.112 54.6444 155.745 50.325C138.855 45.2466 177.733 26.3309 175.74 39.575V39.575Z" fill="white"/>
<path d="M77.7792 121.595L71.1839 135.53C79.1572 129.813 91.611 124.884 101.521 122.244C92.2874 117.784 80.9883 110.592 74.238 103.472L78.0314 118.197C33.5574 109.138 1.62 75.0201 1.60648 35.9375L0 35.3848C0.01412 76.2076 31.5097 112.346 77.7792 121.595V121.595Z" fill="#3F3D56"/>
</svg>
