<svg width="175" height="110" viewBox="0 0 175 110" fill="none" xmlns="http://www.w3.org/2000/svg">
<path d="M44.7762 27.4996C44.3521 26.6549 44.0959 25.7334 44.0222 24.7879C43.9485 23.8424 44.0588 22.8914 44.3467 21.9893C44.6346 21.0872 45.0946 20.2516 45.7002 19.5303C46.3059 18.8091 47.0454 18.2163 47.8765 17.7859C48.7075 17.3555 49.6139 17.0959 50.5437 17.022C51.4735 16.948 52.4085 17.0612 53.2952 17.3549C54.182 17.6487 55.0031 18.1173 55.7117 18.734C56.4203 19.3507 57.0023 20.1034 57.4247 20.9491L73.2238 52.5004C73.6479 53.3451 73.9041 54.2666 73.9778 55.2121C74.0515 56.1576 73.9413 57.1086 73.6533 58.0107C73.3654 58.9128 72.9055 59.7484 72.2998 60.4696C71.6941 61.1909 70.9546 61.7837 70.1235 62.2141C69.2925 62.6445 68.3861 62.9041 67.4563 62.978C66.5266 63.052 65.5915 62.9388 64.7048 62.6451C63.818 62.3513 62.9969 61.8827 62.2883 61.266C61.5798 60.6493 60.9977 59.8966 60.5753 59.0509L44.7762 27.4996Z" fill="#FF6584"/>
<path opacity="0.2" d="M45.7631 31L45 29.545C48.8085 26.6718 53.2806 24.5587 58.2369 23L59 24.455C53.6358 25.5396 49.0721 27.5468 45.7631 31Z" fill="black"/>
<path opacity="0.2" d="M49.6541 39L49 37.3631C52.2644 34.1308 56.0977 31.7536 60.3459 30L61 31.6369C56.4021 32.857 52.4904 35.1151 49.6541 39Z" fill="black"/>
<path opacity="0.2" d="M53.6541 45L53 43.545C56.2644 40.6718 60.0977 38.5587 64.3459 37L65 38.455C60.4021 39.5396 56.4904 41.5468 53.6541 45Z" fill="black"/>
<path opacity="0.2" d="M55.7631 51L55 49.7269C58.8085 47.2128 63.2806 45.3639 68.2369 44L69 45.2731C63.6358 46.2221 59.0721 47.9784 55.7631 51Z" fill="black"/>
<path opacity="0.2" d="M59.7631 59L59 57.545C62.8085 54.6718 67.2806 52.5587 72.2369 51L73 52.455C67.6358 53.5396 63.0721 55.5468 59.7631 59Z" fill="black"/>
<path d="M31.7761 40.2739C31.352 39.4473 31.0958 38.5456 31.0222 37.6204C30.9485 36.6952 31.0589 35.7647 31.3469 34.882C31.6349 33.9993 32.095 33.1817 32.7007 32.476C33.3065 31.7702 34.0462 31.1902 34.8774 30.7691C35.7086 30.3479 36.6151 30.0939 37.545 30.0215C38.475 29.9491 39.4101 30.0598 40.2971 30.3472C41.184 30.6346 42.0053 31.0931 42.714 31.6965C43.4228 32.2999 44.005 33.0363 44.4275 33.8638L60.2304 64.7387C61.0824 66.4077 61.2336 68.3449 60.6509 70.1247C60.0682 71.9046 58.7991 73.3815 57.1226 74.2309C55.4461 75.0804 53.4992 75.2329 51.7097 74.655C49.9202 74.0771 48.4344 72.816 47.5789 71.1488L31.7761 40.2739Z" fill="#FF6584"/>
<path opacity="0.2" d="M34.6541 44L34 42.3631C37.2644 39.1308 41.0977 36.7536 45.3459 35L46 36.6369C41.4021 37.857 37.4904 40.1151 34.6541 44Z" fill="black"/>
<path opacity="0.2" d="M36.7631 50L36 48.3631C39.8084 45.1308 44.2806 42.7536 49.2369 41L50 42.6369C44.6358 43.857 40.0721 46.1151 36.7631 50Z" fill="black"/>
<path opacity="0.2" d="M40.7631 56L40 54.7269C43.8084 52.2128 48.2806 50.3639 53.2369 49L54 50.2731C48.6358 51.2221 44.0721 52.9784 40.7631 56Z" fill="black"/>
<path opacity="0.2" d="M44.7631 64L44 62.3631C47.8085 59.1308 52.2806 56.7536 57.2369 55L58 56.6369C52.6358 57.857 48.0721 60.1151 44.7631 64Z" fill="black"/>
<path opacity="0.2" d="M46.7631 70L46 68.7269C49.8085 66.2128 54.2806 64.3639 59.2369 63L60 64.2731C54.6358 65.2221 50.0721 66.9784 46.7631 70Z" fill="black"/>
<path d="M133.266 52.3893L133.32 52.3893C135.162 52.405 136.967 51.8578 138.498 50.8192C140.029 49.7805 141.215 48.2987 141.902 46.5669C143.315 42.9498 144.027 39.091 143.999 35.2013C143.903 18.7374 130.679 5.23072 114.425 5.00298C107.502 4.90483 100.76 7.23413 95.3393 11.596C89.919 15.9579 86.1547 22.084 84.6845 28.9358C83.2142 35.7876 84.1286 42.9435 87.2725 49.1906C90.4164 55.4376 95.5964 60.3913 101.934 63.212C103.609 63.9631 105.469 64.184 107.27 63.8457C109.071 63.5075 110.73 62.6258 112.027 61.3164C114.811 58.4825 118.12 56.2347 121.765 54.7025C125.411 53.1703 129.319 52.3841 133.266 52.3893Z" fill="white"/>
<path d="M118 43C123.523 43 128 38.5228 128 33C128 27.4772 123.523 23 118 23C112.477 23 108 27.4772 108 33C108 38.5228 112.477 43 118 43Z" fill="#F9A825"/>
<path d="M96.5 32C97.3284 32 98 31.5523 98 31C98 30.4477 97.3284 30 96.5 30C95.6716 30 95 30.4477 95 31C95 31.5523 95.6716 32 96.5 32Z" fill="#3F3D56"/>
<path d="M54 35C54.5523 35 55 34.3284 55 33.5C55 32.6716 54.5523 32 54 32C53.4477 32 53 32.6716 53 33.5C53 34.3284 53.4477 35 54 35Z" fill="#3F3D56"/>
<path d="M103 20C103.552 20 104 19.5523 104 19C104 18.4477 103.552 18 103 18C102.448 18 102 18.4477 102 19C102 19.5523 102.448 20 103 20Z" fill="#3F3D56"/>
<path d="M103 54C103.552 54 104 53.5523 104 53C104 52.4477 103.552 52 103 52C102.448 52 102 52.4477 102 53C102 53.5523 102.448 54 103 54Z" fill="#3F3D56"/>
<path d="M125.5 18C126.328 18 127 17.3284 127 16.5C127 15.6716 126.328 15 125.5 15C124.672 15 124 15.6716 124 16.5C124 17.3284 124.672 18 125.5 18Z" fill="#3F3D56"/>
<path d="M46 50C46.5523 50 47 49.3284 47 48.5C47 47.6716 46.5523 47 46 47C45.4477 47 45 47.6716 45 48.5C45 49.3284 45.4477 50 46 50Z" fill="#3F3D56"/>
<path d="M54 66C54.5523 66 55 65.5523 55 65C55 64.4477 54.5523 64 54 64C53.4477 64 53 64.4477 53 65C53 65.5523 53.4477 66 54 66Z" fill="#3F3D56"/>
<path d="M112.5 72C114.985 72 117 69.9853 117 67.5C117 65.0147 114.985 63 112.5 63C110.015 63 108 65.0147 108 67.5C108 69.9853 110.015 72 112.5 72Z" fill="#FF6584"/>
<path opacity="0.2" d="M115 68C115 68.5304 114.684 69.0391 114.121 69.4142C113.559 69.7893 112.796 70 112 70C111.204 70 110.441 69.7893 109.879 69.4142C109.316 69.0391 109 68.5304 109 68" fill="black"/>
<path opacity="0.2" d="M109 67C109 66.2044 109.316 65.4413 109.879 64.8787C110.441 64.3161 111.204 64 112 64C112.796 64 113.559 64.3161 114.121 64.8787C114.684 65.4413 115 66.2044 115 67" fill="black"/>
<path d="M121 60C123.209 60 125 57.7614 125 55C125 52.2386 123.209 50 121 50C118.791 50 117 52.2386 117 55C117 57.7614 118.791 60 121 60Z" fill="#FF6584"/>
<path opacity="0.2" d="M124 55C124 56.0609 123.684 57.0783 123.121 57.8284C122.559 58.5786 121.796 59 121 59C120.204 59 119.441 58.5786 118.879 57.8284C118.316 57.0783 118 56.0609 118 55" fill="black"/>
<path opacity="0.2" d="M118 55C118 54.2044 118.316 53.4413 118.879 52.8787C119.441 52.3161 120.204 52 121 52C121.796 52 122.559 52.3161 123.121 52.8787C123.684 53.4413 124 54.2044 124 55" fill="black"/>
<path d="M121 54C121.552 54 122 53.7761 122 53.5C122 53.2239 121.552 53 121 53C120.448 53 120 53.2239 120 53.5C120 53.7761 120.448 54 121 54Z" fill="#FF6584"/>
<path d="M121 58C121.552 58 122 57.7761 122 57.5C122 57.2239 121.552 57 121 57C120.448 57 120 57.2239 120 57.5C120 57.7761 120.448 58 121 58Z" fill="#FF6584"/>
<path d="M129.5 65C131.985 65 134 63.2091 134 61C134 58.7909 131.985 57 129.5 57C127.015 57 125 58.7909 125 61C125 63.2091 127.015 65 129.5 65Z" fill="#6C63FF"/>
<path opacity="0.2" d="M134 62C134 62.7956 133.631 63.5587 132.975 64.1213C132.319 64.6839 131.428 65 130.5 65C129.572 65 128.681 64.6839 128.025 64.1213C127.369 63.5587 127 62.7956 127 62" fill="black"/>
<path opacity="0.2" d="M127 62C127 60.9391 127.369 59.9217 128.025 59.1716C128.681 58.4214 129.572 58 130.5 58C131.428 58 132.319 58.4214 132.975 59.1716C133.631 59.9217 134 60.9391 134 62" fill="black"/>
<path d="M129.5 60C129.776 60 130 59.7761 130 59.5C130 59.2239 129.776 59 129.5 59C129.224 59 129 59.2239 129 59.5C129 59.7761 129.224 60 129.5 60Z" fill="#6C63FF"/>
<path d="M129.5 64C129.776 64 130 63.7761 130 63.5C130 63.2239 129.776 63 129.5 63C129.224 63 129 63.2239 129 63.5C129 63.7761 129.224 64 129.5 64Z" fill="#6C63FF"/>
<path d="M128.5 63C128.776 63 129 62.7761 129 62.5C129 62.2239 128.776 62 128.5 62C128.224 62 128 62.2239 128 62.5C128 62.7761 128.224 63 128.5 63Z" fill="#6C63FF"/>
<path d="M108.5 67C110.985 67 113 64.9853 113 62.5C113 60.0147 110.985 58 108.5 58C106.015 58 104 60.0147 104 62.5C104 64.9853 106.015 67 108.5 67Z" fill="#6C63FF"/>
<path opacity="0.2" d="M112 63C112 63.5304 111.579 64.0391 110.828 64.4142C110.078 64.7893 109.061 65 108 65C106.939 65 105.922 64.7893 105.172 64.4142C104.421 64.0391 104 63.5304 104 63" fill="black"/>
<path opacity="0.2" d="M104 62C104 61.2044 104.421 60.4413 105.172 59.8787C105.922 59.3161 106.939 59 108 59C109.061 59 110.078 59.3161 110.828 59.8787C111.579 60.4413 112 61.2044 112 62" fill="black"/>
<path d="M108.5 64C108.776 64 109 63.7761 109 63.5C109 63.2239 108.776 63 108.5 63C108.224 63 108 63.2239 108 63.5C108 63.7761 108.224 64 108.5 64Z" fill="#6C63FF"/>
<path d="M109.5 62C109.776 62 110 61.5523 110 61C110 60.4477 109.776 60 109.5 60C109.224 60 109 60.4477 109 61C109 61.5523 109.224 62 109.5 62Z" fill="#6C63FF"/>
<path d="M106 64C106.552 64 107 63.7761 107 63.5C107 63.2239 106.552 63 106 63C105.448 63 105 63.2239 105 63.5C105 63.7761 105.448 64 106 64Z" fill="#6C63FF"/>
<path d="M118.5 69C120.985 69 123 66.9853 123 64.5C123 62.0147 120.985 60 118.5 60C116.015 60 114 62.0147 114 64.5C114 66.9853 116.015 69 118.5 69Z" fill="#6C63FF"/>
<path opacity="0.2" d="M122 64C122 64.5253 121.897 65.0454 121.696 65.5307C121.494 66.016 121.2 66.457 120.828 66.8284C120.457 67.1999 120.016 67.4945 119.531 67.6955C119.045 67.8965 118.525 68 118 68C117.475 68 116.955 67.8965 116.469 67.6955C115.984 67.4945 115.543 67.1999 115.172 66.8284C114.8 66.457 114.505 66.016 114.304 65.5307C114.103 65.0454 114 64.5253 114 64" fill="black"/>
<path opacity="0.2" d="M114 64C114 63.4747 114.103 62.9546 114.304 62.4693C114.505 61.984 114.8 61.543 115.172 61.1716C115.543 60.8001 115.984 60.5055 116.469 60.3045C116.955 60.1035 117.475 60 118 60C118.525 60 119.045 60.1035 119.531 60.3045C120.016 60.5055 120.457 60.8001 120.828 61.1716C121.2 61.543 121.494 61.984 121.696 62.4693C121.897 62.9546 122 63.4747 122 64" fill="black"/>
<path d="M116 63C116.552 63 117 62.7761 117 62.5C117 62.2239 116.552 62 116 62C115.448 62 115 62.2239 115 62.5C115 62.7761 115.448 63 116 63Z" fill="#6C63FF"/>
<path d="M124.5 73C126.985 73 129 70.9853 129 68.5C129 66.0147 126.985 64 124.5 64C122.015 64 120 66.0147 120 68.5C120 70.9853 122.015 73 124.5 73Z" fill="#FF6584"/>
<path opacity="0.2" d="M128 69C128 69.7956 127.684 70.5587 127.121 71.1213C126.559 71.6839 125.796 72 125 72C124.204 72 123.441 71.6839 122.879 71.1213C122.316 70.5587 122 69.7956 122 69" fill="black"/>
<path opacity="0.2" d="M122 69C122 67.9391 122.316 66.9217 122.879 66.1716C123.441 65.4214 124.204 65 125 65C125.796 65 126.559 65.4214 127.121 66.1716C127.684 66.9217 128 67.9391 128 69" fill="black"/>
<path d="M123.5 68C123.776 68 124 67.7761 124 67.5C124 67.2239 123.776 67 123.5 67C123.224 67 123 67.2239 123 67.5C123 67.7761 123.224 68 123.5 68Z" fill="#FF6584"/>
<path d="M126 72C126.552 72 127 71.5523 127 71C127 70.4477 126.552 70 126 70C125.448 70 125 70.4477 125 71C125 71.5523 125.448 72 126 72Z" fill="#FF6584"/>
<path d="M62.5 54C63.3284 54 64 53.3284 64 52.5C64 51.6716 63.3284 51 62.5 51C61.6716 51 61 51.6716 61 52.5C61 53.3284 61.6716 54 62.5 54Z" fill="#3F3D56"/>
<path d="M106.819 90L76 81.4083L77.1806 77L108 85.5921L106.819 90Z" fill="#F9A825"/>
<path d="M103 88.5C92.099 90.5 80.901 90.5 70 88.5V84C80.9255 85.7354 92.0745 85.7354 103 84V88.5Z" fill="#F9A825"/>
<path d="M106 74.5C95.099 76.5 83.901 76.5 73 74.5V70C83.9255 71.7354 95.0745 71.7354 106 70V74.5Z" fill="#F9A825"/>
<path d="M118 80.5C107.099 82.5 95.901 82.5 85 80.5V76C95.9255 77.7354 107.075 77.7354 118 76V80.5Z" fill="#F9A825"/>
<path d="M119 81.5C108.429 83.5 97.5707 83.5 87 81.5V77C97.5944 78.7354 108.406 78.7354 119 77V81.5Z" fill="#F9A825"/>
<path d="M130 92.5861L96.7706 98L96 93.4139L129.229 88L130 92.5861Z" fill="#F9A825"/>
<path d="M125 93.2076C115.95 99.6244 105.751 104.304 94.9367 107L93 102.792C103.719 99.8399 113.875 95.1808 123.063 89L125 93.2076Z" fill="#F9A825"/>
<path d="M122 78.4413C113.233 85.2146 103.352 90.1539 92.8762 93L91 88.5587C101.384 85.4421 111.222 80.5242 120.124 74L122 78.4413Z" fill="#F9A825"/>
<path d="M135 79.2076C125.95 85.6244 115.751 90.3037 104.937 93L103 88.7924C113.719 85.8399 123.875 81.1808 133.063 75L135 79.2076Z" fill="#F9A825"/>
<path d="M140 83.2076C130.95 89.6244 120.751 94.3037 109.937 97L108 92.7924C118.719 89.8399 128.875 85.1808 138.063 79L140 83.2076Z" fill="#F9A825"/>
<path d="M100 74H99V75H100V74Z" fill="#00BF71"/>
<path d="M105 101H103V103H105V101Z" fill="#00BF71"/>
<path d="M73 79H72V80H73V79Z" fill="#00BF71"/>
<path d="M117 93H115V95H117V93Z" fill="#00BF71"/>
<path d="M117 84H116V86H117V84Z" fill="#00BF71"/>
<path d="M91.5243 79.7505L89.7129 78.5215L89.0106 79.5566L90.822 80.7856L91.5243 79.7505Z" fill="#00BF71"/>
<path d="M109.975 83.1904L108.163 81.9614L107.461 82.9965L109.272 84.2255L109.975 83.1904Z" fill="#00BF71"/>
<path d="M87.4589 89.1318L85.6475 87.9028L84.9452 88.9379L86.7566 90.1669L87.4589 89.1318Z" fill="#00BF71"/>
<path d="M98.9265 89.0409L100.156 87.2295L99.1204 86.5272L97.8914 88.3386L98.9265 89.0409Z" fill="#00BF71"/>
<path d="M107.37 91.2299L108.599 89.4185L107.564 88.7162L106.335 90.5276L107.37 91.2299Z" fill="#00BF71"/>
<path d="M129.887 83.7245L131.116 81.9131L130.081 81.2108L128.852 83.0222L129.887 83.7245Z" fill="#00BF71"/>
</svg>
