<svg width="175" height="110" viewBox="0 0 175 110" fill="none" xmlns="http://www.w3.org/2000/svg">
<path d="M67.8006 43.1204C67.7369 48.9191 57.7822 55.0112 48.6701 54.9113C39.5579 54.8113 29.7612 46.5024 29.8248 40.7037C29.8884 34.9051 31.5233 24.0252 40.6355 24.1252C49.7476 24.2251 67.8641 37.3218 67.8005 43.1204H67.8006V43.1204Z" fill="#FF6884"/>
<path opacity="0.28" d="M51.3142 91.2581L53.7695 57.7157C53.7695 57.7157 86.8443 51.078 65.7788 11.3446L37.8025 9.0376C37.8025 9.0376 7.92584 43.212 43.2647 58.1005L44.3844 91.2386C36.6541 91.6212 30.8774 93.3374 30.8541 95.4666C30.8268 97.9517 38.6393 100.052 48.3037 100.158C57.968 100.264 65.8247 98.3356 65.8519 95.8505C65.8764 93.621 59.5851 91.7061 51.3142 91.258L51.3142 91.2581Z" fill="#F2F2F2"/>
<path d="M33.8243 99.0885C31.1717 98.1191 29.8384 96.901 29.8542 95.4563C29.8965 91.5978 39.652 90.5557 43.352 90.2993L42.2867 58.7692C32.9168 54.6818 27.2943 48.827 25.5704 41.3598C21.9873 25.8342 36.4329 9.08551 37.0495 8.37976L37.3817 8L66.4066 10.3928L66.6625 10.8762C74.0866 24.8791 75.7333 36.4468 71.5566 45.2586C67.0974 54.6657 57.4871 57.7945 54.7133 58.5193L52.3853 90.3232C59.3014 90.8127 66.8889 92.5125 66.852 95.8614C66.8103 99.6401 57.2018 101.256 48.2925 101.159C43.5372 101.106 39.06 100.578 35.6848 99.6706C35.006 99.4881 34.3857 99.2936 33.8243 99.0885L33.8243 99.0885ZM38.2362 10.0772C36.1296 12.6397 24.4472 27.6169 27.5206 40.9153C29.1291 47.8745 34.5568 53.3463 43.6529 57.1787L44.2425 57.4274L45.4166 92.1892L44.4336 92.2375C35.4943 92.6806 38.9788 95.0183 38.9702 95.7887C38.9669 96.0724 32.6478 96.7798 36.2039 97.7393C39.4214 98.6042 43.7226 99.1082 48.3145 99.158C59.1999 99.2775 64.8406 96.8856 64.8522 95.8397C64.8611 95.0029 60.9638 92.7833 51.2602 92.2567L50.2426 92.2019L52.8278 56.8862L53.572 56.736C53.6862 56.7123 65.07 54.3001 69.7578 44.3839C73.5915 36.2745 72.0413 25.4813 65.1501 12.2964L46.7154 15.3476C42.9668 15.968 39.3392 13.7132 38.2362 10.0773V10.0772Z" fill="#3F3D56"/>
<path d="M148.259 44.9616H122.184C121.527 44.9616 120.992 44.2596 120.992 43.3969C120.992 42.5342 121.527 41.8325 122.184 41.8325H148.259C148.916 41.8325 149.451 42.5342 149.451 43.3969C149.451 44.2596 148.916 44.9616 148.259 44.9616Z" fill="#3F3D56"/>
<path d="M148.259 78.3254H122.184C121.527 78.3254 120.992 77.6234 120.992 76.7607C120.992 75.898 121.527 75.1963 122.184 75.1963H148.259C148.916 75.1963 149.451 75.898 149.451 76.7607C149.451 77.6234 148.916 78.3254 148.259 78.3254Z" fill="#3F3D56"/>
<path d="M162.251 61.6545H108.192C107.535 61.6545 107 60.9525 107 60.0898C107 59.227 107.535 58.5254 108.192 58.5254H162.251C162.908 58.5254 163.443 59.227 163.443 60.0898C163.443 60.9525 162.908 61.6545 162.251 61.6545V61.6545V61.6545Z" fill="#3F3D56"/>
<path d="M88.7568 39.9341C92.6228 39.9341 95.7568 36.8001 95.7568 32.9341C95.7568 29.0681 92.6228 25.9341 88.7568 25.9341C84.8908 25.9341 81.7568 29.0681 81.7568 32.9341C81.7568 36.8001 84.8908 39.9341 88.7568 39.9341Z" fill="#6C63FF"/>
<path d="M88.5091 35.934C88.3808 35.934 88.2607 35.8695 88.1899 35.7616L86.0889 32.5628C85.973 32.3865 86.0221 32.1496 86.1984 32.0338C86.375 31.918 86.6117 31.9671 86.7274 32.1433L88.4866 34.8217L91.1699 30.1262C91.2747 29.943 91.5079 29.8793 91.6911 29.984C91.8743 30.0887 91.9379 30.322 91.8332 30.5052L88.8408 35.7415C88.7749 35.8569 88.6538 35.9296 88.521 35.9339L88.5091 35.934Z" fill="white"/>
<path d="M88.7568 65.9341C92.6228 65.9341 95.7568 62.8001 95.7568 58.9341C95.7568 55.0681 92.6228 51.9341 88.7568 51.9341C84.8908 51.9341 81.7568 55.0681 81.7568 58.9341C81.7568 62.8001 84.8908 65.9341 88.7568 65.9341Z" fill="#6C63FF"/>
<path d="M88.5091 61.934C88.3808 61.934 88.2607 61.8695 88.1899 61.7616L86.0889 58.5628C85.973 58.3865 86.0221 58.1496 86.1984 58.0338C86.375 57.918 86.6117 57.9671 86.7274 58.1433L88.4866 60.8217L91.1699 56.1262C91.2747 55.943 91.5079 55.8793 91.6911 55.984C91.8743 56.0887 91.9379 56.322 91.8332 56.5052L88.8408 61.7415C88.7749 61.8569 88.6538 61.9296 88.521 61.9339L88.5091 61.934Z" fill="white"/>
<path d="M88.7568 91.9341C92.6228 91.9341 95.7568 88.8001 95.7568 84.9341C95.7568 81.0681 92.6228 77.9341 88.7568 77.9341C84.8908 77.9341 81.7568 81.0681 81.7568 84.9341C81.7568 88.8001 84.8908 91.9341 88.7568 91.9341Z" fill="#6C63FF"/>
<path d="M88.5091 87.934C88.3808 87.934 88.2607 87.8695 88.1899 87.7616L86.0889 84.5628C85.973 84.3865 86.0221 84.1496 86.1984 84.0338C86.375 83.918 86.6117 83.9671 86.7274 84.1433L88.4866 86.8217L91.1699 82.1262C91.2747 81.9429 91.5079 81.8793 91.6911 81.984C91.8743 82.0887 91.9379 82.322 91.8332 82.5052L88.8408 87.7415C88.7749 87.8569 88.6538 87.9296 88.521 87.9339L88.5091 87.934V87.934Z" fill="white"/>
</svg>
