<svg width="359" height="354" viewBox="0 0 359 354" fill="none" xmlns="http://www.w3.org/2000/svg">
<path d="M110 142.022C110.034 132.659 103.008 125 94.7601 125H18.2269C10.1096 125 3.09625 132.532 3.00121 141.747C2.97177 144.366 3.4785 146.957 4.48148 149.316C5.48446 151.674 6.95626 153.737 8.7809 155.339C9.24863 155.735 9.61669 156.263 9.84832 156.871C10.0799 157.479 10.167 158.145 10.1008 158.803C10.0121 159.549 9.96754 160.302 9.96759 161.055V221.155C9.96759 223.367 10.3514 225.557 11.0971 227.601C11.8428 229.645 12.9357 231.502 14.3136 233.066C15.6914 234.63 17.3272 235.871 19.1274 236.718C20.9277 237.564 22.8572 238 24.8057 238H87.6968C91.6321 238 95.4062 236.225 98.1889 233.066C100.972 229.907 102.535 225.622 102.535 221.155V161.055C102.535 160.396 102.501 159.737 102.434 159.082C102.374 158.434 102.468 157.779 102.706 157.186C102.944 156.593 103.317 156.083 103.788 155.709C105.703 154.148 107.264 152.093 108.344 149.714C109.424 147.335 109.991 144.699 110 142.022Z" fill="#3F3D56"/>
<path d="M106.917 139.629C106.533 136.389 105.108 133.419 102.91 131.277C100.712 129.135 97.8917 127.97 94.9814 128.001H18.0196C15.2989 127.973 12.6513 128.989 10.514 130.879C8.37676 132.77 6.87764 135.423 6.26429 138.399C5.73912 141.135 6.00085 143.988 7.01176 146.546C8.02266 149.104 9.73056 151.235 11.8894 152.633C12.5126 153.034 12.9997 153.655 13.274 154.4C13.5482 155.145 13.5942 155.972 13.4045 156.749C13.1314 157.869 12.9935 159.025 12.9945 160.185V219.906C12.9948 222.958 13.9442 225.914 15.6788 228.264C17.4133 230.613 19.824 232.209 22.4947 232.775C23.2071 232.925 23.9301 233 24.6547 233H87.8413C88.908 233.002 89.9698 232.837 90.9963 232.512C93.4424 231.739 95.5966 230.089 97.131 227.815C98.6654 225.54 99.4961 222.765 99.4965 219.912V160.18C99.4967 159.093 99.3758 158.01 99.1365 156.957C99.0713 156.665 99.0378 156.365 99.0365 156.064C99.037 155.404 99.1973 154.756 99.5003 154.191C99.8033 153.625 100.238 153.162 100.757 152.852L100.762 152.847C102.856 151.598 104.564 149.668 105.663 147.309C106.761 144.95 107.198 142.272 106.917 139.629V139.629Z" fill="#F9A826"/>
<path opacity="0.2" d="M99 165.901V160.286H90.5491V128H85.578V160.286H58.9827V128H54.0116V160.286H27.4162V128H22.4451V160.286H13V165.901H22.4451V182.746H13V188.361H22.4451V205.206H13V210.821H22.4451V232.775C23.1533 232.925 23.8722 233 24.5926 233H27.4162V210.821H54.0115V233H58.9827V210.821H85.578V233H87.4124C88.4729 233.002 89.5286 232.837 90.5491 232.511V210.821H99V205.206H90.5491V188.361H99V182.746H90.5491V165.901H99ZM27.4162 165.901H54.0116V182.746H27.4162V165.901ZM27.4162 205.206V188.361H54.0116V205.206H27.4162ZM85.5781 205.206H58.9827V188.361H85.5781V205.206ZM85.5781 182.746H58.9827V165.901H85.5781V182.746Z" fill="black"/>
<path d="M109 0C109 7.87931 107.629 15.6815 104.966 22.961C102.302 30.2405 98.3982 36.8549 93.4767 42.4264C88.5552 47.9979 82.7125 52.4175 76.2822 55.4328C69.852 58.4481 62.9601 60 56 60C49.0399 60 42.148 58.4481 35.7178 55.4328C29.2875 52.4175 23.4448 47.9979 18.5233 42.4264C13.6018 36.8549 9.69789 30.2405 7.03439 22.961C4.37089 15.6815 3 7.87931 3 0H109Z" fill="#F9A826"/>
<path d="M79 21C79 22.6569 78.3284 24 77.5 24C76.6716 24 76 22.6569 76 21C76.0911 19.8789 76.6208 18.8194 77.5 18C78.3792 18.8194 78.9089 19.8789 79 21Z" fill="#3F3D56"/>
<path d="M37 15C37 16.6568 36.5523 18 36 18C35.4477 18 35 16.6568 35 15C35.0607 13.8789 35.4139 12.8194 36 12C36.5862 12.8194 36.9393 13.8789 37 15Z" fill="#3F3D56"/>
<path d="M59 37.5C59 38.8807 58.5523 40 58 40C57.4477 40 57 38.8807 57 37.5C57.0607 36.5657 57.4138 35.6828 58 35C58.5862 35.6828 58.9393 36.5657 59 37.5V37.5Z" fill="#3F3D56"/>
<path d="M36 34.5C36 35.8807 35.3284 37 34.5 37C33.6716 37 33 35.8807 33 34.5C33.0911 33.5657 33.6208 32.6828 34.5 32C35.3792 32.6828 35.9089 33.5657 36 34.5V34.5Z" fill="#3F3D56"/>
<path d="M71 43C71 44.6569 70.5523 46 70 46C69.4477 46 69 44.6569 69 43C69.0607 41.8789 69.4138 40.8194 70 40C70.5862 40.8194 70.9393 41.8789 71 43V43Z" fill="#3F3D56"/>
<path d="M56.5 63C41.5205 62.9811 27.1593 56.3375 16.5672 44.5268C5.97506 32.7161 0.0169555 16.7028 0 0H6.01397C6.01397 7.39265 7.31983 14.7129 9.85699 21.5428C12.3941 28.3727 16.1129 34.5786 20.801 39.8059C25.489 45.0333 31.0546 49.1799 37.1798 52.009C43.3051 54.838 49.8701 56.2941 56.5 56.2941C63.1299 56.2941 69.6949 54.838 75.8202 52.009C81.9454 49.1799 87.511 45.0333 92.199 39.8059C96.8871 34.5786 100.606 28.3727 103.143 21.5428C105.68 14.7129 106.986 7.39265 106.986 0H113C112.983 16.7028 107.025 32.7161 96.4328 44.5268C85.8407 56.3375 71.4796 62.9811 56.5 63Z" fill="#3F3D56"/>
<path d="M187 22H168V42H187V22Z" fill="#036B52"/>
<path d="M359 31H217V33H359V31Z" fill="#036B52"/>
<path d="M187 171H168V191H187V171Z" fill="#036B52"/>
<path d="M359 180H217V182H359V180Z" fill="#036B52"/>
<path d="M187 320H168V340H187V320Z" fill="#036B52"/>
<path d="M359 328H217V331H359V328Z" fill="#036B52"/>
<path d="M55 326.923L21.9048 322.944C22.1591 320.904 21.9639 318.822 21.3373 316.894C20.7108 314.965 19.6733 313.252 18.3219 311.914C16.9705 310.577 15.3492 309.659 13.6095 309.247C11.8697 308.834 10.0683 308.94 8.3734 309.555C6.67851 310.17 5.14547 311.273 3.91747 312.762C2.68948 314.251 1.8066 316.077 1.35128 318.07C0.895956 320.062 0.883069 322.156 1.3138 324.156C1.74453 326.156 2.60482 327.997 3.81435 329.506C2.58545 331.047 1.71988 332.93 1.30134 334.973C0.882804 337.016 0.925471 339.15 1.42522 341.168C1.92497 343.186 2.86488 345.021 4.15405 346.494C5.44322 347.967 7.03802 349.029 8.78419 349.577C10.5304 350.125 12.3688 350.141 14.1217 349.623C15.8746 349.104 17.4827 348.07 18.7903 346.619C20.098 345.168 21.061 343.349 21.5862 341.34C22.1114 339.33 22.181 337.198 21.7884 335.148L55 331.603V326.923Z" fill="#CCCCCC"/>
<path d="M89.0589 353.278C102.126 356.906 115.29 346.442 115.972 331.27C115.99 330.85 116 330.426 116 330C116 329.574 115.991 329.15 115.972 328.73C115.29 313.558 102.126 303.094 89.0589 306.722L44.7281 319.028C43.4511 319.027 42.1863 319.31 41.006 319.86C39.8258 320.411 38.7533 321.219 37.8499 322.238C36.9464 323.257 36.2297 324.467 35.7407 325.799C35.2517 327.131 35 328.558 35 330C35 331.442 35.2517 332.869 35.7407 334.201C36.2297 335.533 36.9464 336.743 37.8499 337.762C38.7533 338.781 39.8258 339.589 41.006 340.14C42.1863 340.69 43.4511 340.973 44.7281 340.972L89.0589 353.278Z" fill="#F9A826"/>
</svg>
