<svg width="62" height="62" viewBox="0 0 62 62" fill="none" xmlns="http://www.w3.org/2000/svg">
<path d="M55.5845 31.9241C55.3263 36.8619 53.6097 41.6122 50.6517 45.5744C47.6937 49.5366 43.6273 52.5326 38.9665 54.1837C34.3058 55.8347 29.2601 56.0667 24.4676 54.8501C19.6751 53.6336 15.3509 51.0232 12.0419 47.3491C8.73298 43.675 6.58781 39.1021 5.87773 34.2089C5.16766 29.3156 5.92455 24.3216 8.0527 19.8585C10.1809 15.3954 13.5847 11.6636 17.8338 9.13498C22.0828 6.60637 26.9863 5.39453 31.9241 5.65273C35.2026 5.82416 38.4153 6.63969 41.3787 8.05273C44.3421 9.46577 46.9982 11.4487 49.1952 13.8882C51.3923 16.3277 53.0874 19.1761 54.1837 22.2707C55.2799 25.3653 55.7559 28.6455 55.5845 31.9241Z" fill="#F9A826"/>
<path d="M40.2261 50.4544L40.2261 50.4548C40.1582 51.5215 39.9947 52.5821 39.7379 53.6224C36.8045 55.0975 33.415 55.6489 29.7692 55.4498C26.0816 55.2484 23.3337 54.7271 21.289 53.1559C21.1988 52.2372 21.2713 51.1814 21.3402 50.1787C21.3504 50.0298 21.3605 49.8821 21.37 49.7362L21.3701 49.7358C21.7545 43.7724 24.9494 38.9544 28.8663 37.4837L29.9415 37.08L28.9134 36.568C27.4542 35.8415 26.2881 34.594 25.6186 33.0303C24.9487 31.4659 24.8185 29.6835 25.2552 27.9866C25.692 26.2896 26.6672 24.7899 28.0101 23.7405C29.3524 22.6915 30.9772 22.1584 32.6071 22.2227C34.2364 22.2869 35.7783 22.9443 36.9719 24.0869C38.1663 25.2301 38.9413 26.7918 39.1572 28.5111C39.3732 30.2307 39.0155 31.9964 38.1443 33.5064C37.2732 35.0161 35.9459 36.1715 34.3934 36.7824L33.3236 37.2035L34.3611 37.6989C38.0525 39.4617 40.6107 44.4891 40.2261 50.4544Z" fill="#E6E6F0" stroke="#DECFCF"/>
</svg>
