<svg width="50" height="50" viewBox="0 0 50 50" fill="none" xmlns="http://www.w3.org/2000/svg">
<path d="M33.8245 7.6083C31.2322 5.06726 27.9237 3.27595 24.2878 2.44492C20.652 1.6139 16.8398 1.77767 13.2994 2.91699C9.7589 4.0563 6.63727 6.12382 4.30132 8.87657C1.96537 11.6293 0.512151 14.9529 0.112472 18.4568C-0.287207 21.9606 0.383271 25.4991 2.04507 28.6564C3.70687 31.8138 6.29095 34.4587 9.49365 36.2804C12.6963 38.1021 16.3846 39.0249 20.1249 38.9404C23.8652 38.8558 27.5021 37.7674 30.6083 35.803L44.8136 49.7226C44.9006 49.8082 45.0048 49.8767 45.12 49.9242C45.2352 49.9718 45.3593 49.9974 45.4851 49.9996C45.6109 50.0018 45.7359 49.9806 45.8529 49.9372C45.97 49.8938 46.0767 49.829 46.1671 49.7466L49.7057 46.5494C49.7966 46.4675 49.8693 46.3694 49.9198 46.2609C49.9703 46.1523 49.9975 46.0355 49.9998 45.917C50.0022 45.7985 49.9797 45.6808 49.9336 45.5705C49.8875 45.4603 49.8187 45.3597 49.7312 45.2746L35.5259 31.355C38.2516 27.8401 39.5752 23.5328 39.264 19.19C38.9528 14.8471 37.0269 10.7464 33.8245 7.6083V7.6083ZM29.3991 29.9883C27.3949 31.8029 24.8644 33.017 22.1276 33.477C19.3908 33.9371 16.5707 33.6225 14.0237 32.573C11.4768 31.5235 9.31743 29.7862 7.8187 27.5808C6.31996 25.3754 5.54914 22.8009 5.60372 20.1829C5.6583 17.5649 6.53583 15.0209 8.12534 12.8727C9.71484 10.7244 11.9449 9.06828 14.5337 8.11375C17.1224 7.15922 19.9535 6.94913 22.669 7.51004C25.3845 8.07096 27.8624 9.37771 29.7894 11.265C32.3715 13.7961 33.7809 17.1893 33.7077 20.6987C33.6345 24.2082 32.0847 27.5467 29.3991 29.9803V29.9883Z" fill="url(#paint0_linear_298286_228)"/>
<path d="M11.501 16.3457C9.49966 16.3457 9.49966 19.2303 11.501 19.2303C13.5023 19.2303 13.497 16.3457 11.501 16.3457Z" fill="url(#paint1_linear_298286_228)"/>
<path d="M20.2369 9.61996C18.2493 9.56623 16.2794 9.9715 14.5128 10.7976C12.7462 11.6237 11.2412 12.8434 10.1396 14.3417C9.47487 15.2861 11.3639 16.12 12.0286 15.1795C13.7115 12.7843 16.93 11.265 20.401 11.3449C22.1552 11.3997 23.8675 11.8454 25.3859 12.6425C26.9043 13.4396 28.182 14.5634 29.1057 15.9144C29.7704 16.9083 31.5164 16.0058 30.8516 15.0195C28.727 11.859 24.5955 9.71135 20.2369 9.61996Z" fill="url(#paint2_linear_298286_228)"/>
<path d="M34.4715 5.67632C31.9829 3.13935 28.8067 1.35094 25.3163 0.521238C21.8259 -0.30846 18.1662 -0.144946 14.7674 0.992545C11.3685 2.13004 8.37178 4.19425 6.12927 6.94259C3.88676 9.69094 2.49167 13.0092 2.10797 16.5075C1.72428 20.0057 2.36794 23.5385 3.96327 26.6908C5.55859 29.8431 8.03931 32.4838 11.1139 34.3026C14.1885 36.1214 17.7292 37.0427 21.3199 36.9583C24.9105 36.8739 28.402 35.7872 31.384 33.826L45.0211 47.7232C45.1046 47.8087 45.2046 47.8771 45.3152 47.9246C45.4258 47.972 45.5449 47.9976 45.6657 47.9998C45.7864 48.0021 45.9064 47.9809 46.0188 47.9375C46.1312 47.8942 46.2337 47.8295 46.3204 47.7472L49.7175 44.5552C49.8047 44.4733 49.8745 44.3754 49.923 44.2671C49.9714 44.1587 49.9976 44.042 49.9998 43.9237C50.0021 43.8054 49.9805 43.6879 49.9362 43.5778C49.892 43.4677 49.8259 43.3673 49.7419 43.2823L36.1089 29.3771C38.7229 25.868 39.9916 21.569 39.6921 17.2349C39.3927 12.9007 37.5443 8.80843 34.4715 5.67632ZM30.2231 28.0205C28.2991 29.8322 25.8698 31.0444 23.2425 31.5037C20.6152 31.963 17.9079 31.6489 15.4628 30.6011C13.0177 29.5532 10.9447 27.8187 9.50595 25.6168C8.06716 23.415 7.32717 20.8446 7.37957 18.2308C7.43197 15.617 8.2744 13.0771 9.80033 10.9323C11.3262 8.78744 13.4671 7.13397 15.9523 6.18097C18.4375 5.22797 21.1554 5.01823 23.7622 5.57825C26.3691 6.13827 28.7479 7.44291 30.5979 9.32721C33.0767 11.8542 34.4296 15.242 34.3594 18.7459C34.2891 22.2497 32.8013 25.5828 30.2231 28.0125V28.0205Z" fill="#F9A826"/>
<path d="M10.501 14.4229C8.49966 14.4229 8.49966 17.3075 10.501 17.3075C12.5023 17.3075 12.497 14.4229 10.501 14.4229Z" fill="#F9A826"/>
<path d="M20.2369 6.73587C18.2493 6.67446 16.2794 7.13766 14.5128 8.08178C12.7462 9.0259 11.2412 10.4199 10.1396 12.1322C9.47487 13.2115 11.3639 14.1645 12.0286 13.0896C13.7115 10.3523 16.93 8.61587 20.401 8.70726C22.1552 8.76989 23.8675 9.27928 25.3859 10.1902C26.9043 11.1012 28.182 12.3855 29.1057 13.9295C29.7704 15.0653 31.5164 14.034 30.8516 12.9068C28.727 9.29477 24.5955 6.83596 20.2369 6.73587Z" fill="#F9A826"/>
<defs>
<linearGradient id="paint0_linear_298286_228" x1="25.0204" y1="49.9983" x2="25.0204" y2="1.92537" gradientUnits="userSpaceOnUse">
<stop stop-color="#B3B3B3" stop-opacity="0.25"/>
<stop offset="0.54" stop-color="#B3B3B3" stop-opacity="0.1"/>
<stop offset="1" stop-color="#B3B3B3" stop-opacity="0.05"/>
</linearGradient>
<linearGradient id="paint1_linear_298286_228" x1="11.501" y1="19.2303" x2="11.501" y2="16.3457" gradientUnits="userSpaceOnUse">
<stop stop-opacity="0.12"/>
<stop offset="0.55" stop-opacity="0.09"/>
<stop offset="1" stop-opacity="0.02"/>
</linearGradient>
<linearGradient id="paint2_linear_298286_228" x1="20.5019" y1="16.3599" x2="20.5019" y2="9.61615" gradientUnits="userSpaceOnUse">
<stop stop-opacity="0.12"/>
<stop offset="0.55" stop-opacity="0.09"/>
<stop offset="1" stop-opacity="0.02"/>
</linearGradient>
</defs>
</svg>
