<svg width="398" height="347" viewBox="0 0 398 347" fill="none" xmlns="http://www.w3.org/2000/svg">
<path d="M294.939 70.3277C309.274 53.0832 333.353 41.5677 356.302 46.0123C336.58 61.0296 323.207 82.0483 318.55 105.35C316.789 114.342 315.837 124.514 308.345 130.433C303.683 134.116 297.229 135.345 291.125 134.976C285.02 134.607 279.137 132.796 273.333 130.999L271.825 131.221C274.569 109.577 280.605 87.5722 294.939 70.3277Z" fill="#00BF71" fill-opacity="0.6"/>
<path d="M356.269 46.4688C337.778 51.9362 321.61 62.6813 310.062 77.1778C307.517 80.2575 305.509 83.691 304.113 87.3519C302.878 90.959 302.704 94.8078 303.609 98.4986C304.379 101.956 305.598 105.409 305.45 108.98C305.346 110.806 304.827 112.592 303.928 114.219C303.029 115.847 301.77 117.279 300.234 118.422C296.486 121.364 291.825 122.878 287.212 124.211C282.089 125.691 276.744 127.153 272.742 130.65C272.257 131.073 271.578 130.349 272.062 129.926C279.025 123.843 289.346 123.889 297.211 119.286C300.881 117.139 303.877 113.95 304.35 109.812C304.764 106.194 303.511 102.632 302.699 99.1384C301.759 95.55 301.778 91.8022 302.755 88.2223C303.946 84.5072 305.808 81.0075 308.261 77.8731C313.664 70.7346 320.24 64.4303 327.75 59.1911C336.284 53.1674 345.864 48.5455 356.075 45.5251C356.707 45.3384 356.897 46.2833 356.269 46.4688L356.269 46.4688Z" fill="#036B52"/>
<path d="M313.486 72.3112C311.133 70.1797 309.671 67.34 309.362 64.2992C309.053 61.2583 309.917 58.2144 311.799 55.7111C312.182 55.2057 313.045 55.7349 312.661 56.2409C310.904 58.569 310.1 61.4045 310.394 64.2356C310.687 67.0666 312.06 69.7068 314.264 71.6795C314.742 72.1087 313.961 72.7379 313.486 72.3111L313.486 72.3112Z" fill="#036B52"/>
<path d="M302.971 96.7912C309.687 96.7658 316.146 94.3881 321.059 90.1322C321.546 89.7101 322.225 90.4343 321.739 90.8558C316.616 95.2758 309.89 97.7374 302.901 97.7495C302.235 97.7502 302.308 96.7919 302.971 96.7912V96.7912Z" fill="#036B52"/>
<path d="M336.612 54.4023C337.337 55.4034 338.319 56.2213 339.469 56.7825C340.618 57.3437 341.9 57.6306 343.198 57.6176C343.864 57.609 343.79 58.5674 343.128 58.5759C341.694 58.5841 340.279 58.2656 339.007 57.6482C337.735 57.0308 336.646 56.1332 335.833 55.034C335.747 54.9364 335.705 54.812 335.714 54.6861C335.723 54.5602 335.783 54.4423 335.883 54.3564C335.986 54.2732 336.121 54.2314 336.257 54.24C336.394 54.2486 336.521 54.3069 336.612 54.4023L336.612 54.4023Z" fill="#036B52"/>
<path d="M393.352 111.273C392.936 111.289 392.521 111.305 392.1 111.329C386.514 111.575 380.96 112.243 375.49 113.326C375.066 113.404 374.637 113.488 374.216 113.577C361.069 116.317 348.583 121.302 337.394 128.279C332.944 131.06 328.728 134.15 324.783 137.525C319.334 142.186 313.826 147.643 307.233 150.281C306.549 150.564 305.846 150.806 305.129 151.008L272.235 132.916C272.183 132.84 272.125 132.771 272.073 132.695L270.724 132.028C270.914 131.841 271.116 131.65 271.306 131.463C271.416 131.354 271.534 131.249 271.644 131.14C271.719 131.068 271.795 130.997 271.859 130.929C271.884 130.905 271.91 130.881 271.93 130.864C271.994 130.796 272.061 130.738 272.121 130.677C273.246 129.61 274.38 128.548 275.525 127.492C275.53 127.485 275.53 127.485 275.542 127.482C284.288 119.454 293.832 112.034 304.283 106.197C304.598 106.021 304.916 105.839 305.246 105.671C309.973 103.065 314.921 100.821 320.041 98.964C322.848 97.9554 325.708 97.0795 328.61 96.3398C336.114 94.4418 343.891 93.6528 351.658 94.0018C367.141 94.6996 382.211 99.9932 392.569 110.465C392.834 110.733 393.091 110.998 393.352 111.273Z" fill="#00BF71" fill-opacity="0.6"/>
<path d="M393.03 111.622C374.726 105.638 354.858 105.168 336.25 110.278C332.223 111.312 328.396 112.93 324.911 115.072C321.589 117.26 318.957 120.236 317.29 123.69C315.666 126.881 314.403 130.32 311.972 133.089C310.706 134.489 309.135 135.624 307.364 136.42C305.592 137.216 303.659 137.655 301.693 137.708C296.795 137.959 292.093 136.559 287.546 135.041C282.498 133.356 277.283 131.531 271.823 132.083C271.161 132.15 271.088 131.191 271.749 131.125C281.248 130.165 289.459 135.979 298.719 136.706C303.04 137.046 307.498 136.176 310.555 133.138C313.228 130.481 314.535 126.936 316.149 123.691C317.722 120.3 320.165 117.318 323.263 115.007C326.62 112.707 330.373 110.955 334.362 109.825C343.298 107.15 352.632 105.797 362.02 105.817C372.736 105.785 383.378 107.457 393.487 110.761C394.112 110.965 393.652 111.826 393.03 111.622L393.03 111.622Z" fill="#036B52"/>
<path d="M342.137 108.299C341.639 105.28 342.311 102.194 344.034 99.5935C345.756 96.9927 348.417 95.0458 351.541 94.1005C352.174 93.9113 352.52 94.8166 351.886 95.0061C348.975 95.8813 346.497 97.6951 344.898 100.12C343.3 102.545 342.686 105.421 343.168 108.23C343.272 108.841 342.241 108.906 342.137 108.299L342.137 108.299Z" fill="#036B52"/>
<path d="M317.884 121.963C323.262 125.702 329.959 127.418 336.639 126.771C337.301 126.706 337.374 127.664 336.713 127.729C329.76 128.391 322.795 126.591 317.207 122.689C316.675 122.316 317.354 121.592 317.884 121.963L317.884 121.963Z" fill="#036B52"/>
<path d="M299.014 83.0256H296.974V31.0604C296.974 27.1108 296.137 23.1998 294.511 19.5508C292.886 15.9018 290.503 12.5863 287.499 9.79345C284.495 7.00063 280.928 4.78525 277.003 3.27379C273.078 1.76232 268.872 0.984377 264.623 0.984375H146.202C141.954 0.984366 137.747 1.7623 133.822 3.27375C129.897 4.7852 126.331 7.00058 123.327 9.79339C120.323 12.5862 117.94 15.9018 116.314 19.5507C114.688 23.1997 113.852 27.1107 113.852 31.0603V316.145C113.852 324.122 117.26 331.772 123.327 337.412C129.394 343.053 137.622 346.221 146.202 346.221H264.623C273.203 346.221 281.432 343.053 287.499 337.412C293.565 331.772 296.974 324.122 296.974 316.146V120.015H299.014V83.0256Z" fill="#3F3D56"/>
<path d="M265.928 8.81057H250.47C251.181 10.4309 251.452 12.1888 251.26 13.9295C251.068 15.6703 250.419 17.3404 249.369 18.7928C248.319 20.2452 246.901 21.4352 245.24 22.2581C243.579 23.081 241.725 23.5114 239.843 23.5116H172.001C170.119 23.5115 168.266 23.081 166.604 22.2581C164.943 21.4352 163.525 20.2452 162.475 18.7928C161.426 17.3404 160.776 15.6703 160.584 13.9295C160.392 12.1888 160.663 10.4308 161.374 8.81055H146.936C140.529 8.81054 134.384 11.1769 129.853 15.3891C125.323 19.6012 122.777 25.3141 122.777 31.271V315.938C122.777 318.887 123.402 321.808 124.616 324.533C125.83 327.258 127.61 329.734 129.853 331.82C132.097 333.905 134.76 335.56 137.691 336.688C140.622 337.817 143.764 338.398 146.936 338.398H265.928C269.101 338.398 272.242 337.817 275.173 336.689C278.104 335.56 280.768 333.905 283.011 331.82C285.254 329.734 287.034 327.258 288.248 324.533C289.462 321.808 290.087 318.887 290.087 315.938V315.938V31.271C290.087 25.3141 287.542 19.6012 283.011 15.3891C278.48 11.1769 272.335 8.81057 265.928 8.81057Z" fill="white"/>
<path d="M208.721 246.948C199.958 246.956 191.28 245.357 183.183 242.243C175.086 239.129 167.729 234.561 161.534 228.801C155.338 223.04 150.424 216.201 147.075 208.673C143.725 201.145 142.006 193.077 142.014 184.931C142.001 173.492 145.397 162.273 151.824 152.519C158.252 142.765 167.459 134.856 178.426 129.67C186.376 125.91 195.055 123.667 203.952 123.074C212.848 122.48 221.782 123.548 230.228 126.214C245.186 130.953 257.849 140.474 265.961 153.081C274.074 165.688 277.109 180.564 274.527 195.057C271.945 209.551 263.914 222.722 251.862 232.225C239.811 241.728 224.523 246.945 208.721 246.948L208.721 246.948ZM208.721 125.346C198.601 125.318 188.621 127.544 179.616 131.836C171.744 135.565 164.787 140.766 159.18 147.113C153.574 153.46 149.439 160.816 147.036 168.719C144.632 176.623 144.012 184.902 145.215 193.039C146.417 201.176 149.416 208.993 154.022 216.001C158.629 223.009 164.744 229.056 171.984 233.763C179.224 238.469 187.433 241.733 196.094 243.35C204.755 244.967 213.683 244.901 222.315 243.158C230.948 241.415 239.1 238.031 246.26 233.219C249.721 230.898 252.922 228.257 255.814 225.338C264.271 216.831 269.877 206.215 271.944 194.791C274.011 183.368 272.45 171.631 267.452 161.019C262.455 150.408 254.237 141.381 243.805 135.045C233.374 128.709 221.181 125.338 208.721 125.346V125.346Z" fill="#F0F0F0"/>
<path d="M64.1757 129.898C66.0068 130.112 67.7652 130.696 69.3271 131.609C70.8891 132.523 72.2166 133.744 73.2161 135.186C74.2156 136.628 74.8629 138.257 75.1123 139.957C75.3617 141.656 75.2071 143.386 74.6595 145.025L96.823 162.188L88.889 177.254L57.9561 152.607C55.0566 151.569 52.6673 149.579 51.2409 147.013C49.8145 144.447 49.45 141.483 50.2167 138.684C50.9833 135.885 52.8278 133.445 55.4005 131.825C57.9733 130.206 61.0956 129.52 64.1758 129.898L64.1757 129.898Z" fill="#FFB6B6"/>
<path d="M271.172 201.472C270.727 197.03 268.89 189.044 267.331 186.092C262.537 174.428 231.566 164.841 227.407 163.606L226.352 152.702L183.319 148.397L177.86 162.341L162.426 167.724C161.379 168.087 160.43 168.661 159.649 169.406C158.868 170.15 158.274 171.046 157.909 172.029V172.029L144.062 175.75L130.398 179.422L82.9274 148.324L80.6861 149.686L65.7056 158.774L63.3945 160.176L124.826 211.703L147.646 206.726L164.807 202.972L166.272 208.501L162.479 227.925C173.468 238.145 188.014 244.391 203.508 245.542C219.002 246.694 234.431 242.675 247.027 234.208L256.775 226.166C263.57 219.335 268.585 211.145 271.433 202.226L271.172 201.472Z" fill="#121212"/>
<path d="M218.355 139.481C234.6 134.481 243.409 118.184 238.031 103.082C232.652 87.9791 215.123 79.7896 198.878 84.7899C182.634 89.7902 173.825 106.087 179.203 121.189C184.582 136.292 202.111 144.481 218.355 139.481Z" fill="#FFB6B6"/>
<path d="M184.143 79.2925C187.155 75.2933 191.675 72.494 196.805 71.451C201.878 70.481 207.157 71.3813 211.529 73.9617C216.283 72.1813 221.409 71.0001 226.445 71.6006C231.481 72.2011 236.417 74.8163 238.747 79.1247C239.237 80.2408 239.832 81.3147 240.524 82.334C242.577 84.8804 246.392 85.2107 249.762 85.333C248.058 86.2568 246.355 87.1804 244.651 88.104C246.349 88.8396 248.047 89.5752 249.745 90.3109C247.434 91.1311 245.123 91.9513 242.812 92.7716C248.191 97.1673 249.492 104.99 247.455 111.549C245.527 117.759 241.106 122.986 236.169 127.461C235.206 124.122 236.266 120.502 236.971 117.045C237.716 113.392 237.836 109.12 235.084 106.541C233.229 104.801 230.506 104.276 227.939 103.854C214.991 101.725 201.923 100.282 188.799 99.533C187.042 99.3074 185.253 99.4772 183.582 100.028C180.388 101.348 179.105 104.971 178.179 108.184C177.736 102.545 178.09 96.8752 179.233 91.321C180.108 87.0701 181.487 82.8154 184.143 79.2925Z" fill="#2F2E41"/>
<path d="M224.415 276.167H187.792C186.52 276.167 185.3 275.698 184.401 274.862C183.501 274.025 182.996 272.891 182.996 271.709C182.996 270.526 183.501 269.392 184.401 268.556C185.3 267.72 186.52 267.25 187.792 267.25H224.415C225.687 267.25 226.907 267.72 227.807 268.556C228.706 269.392 229.211 270.526 229.211 271.709C229.211 272.891 228.706 274.025 227.807 274.862C226.907 275.698 225.687 276.167 224.415 276.167V276.167Z" fill="#F9A826"/>
<path d="M104.24 37.5675H3.50405C2.57577 37.5661 1.68599 37.2223 1.03011 36.6116C0.374237 36.0009 0.00585938 35.1731 0.00585938 34.3101C0.00585938 33.4471 0.374237 32.6193 1.03011 32.0086C1.68599 31.3979 2.57577 31.0541 3.50405 31.0527H104.24C105.169 31.0527 106.06 31.3959 106.718 32.0068C107.375 32.6177 107.744 33.4462 107.744 34.3101C107.744 35.174 107.375 36.0025 106.718 36.6134C106.06 37.2243 105.169 37.5675 104.24 37.5675V37.5675Z" fill="#F9A826"/>
<path d="M162.401 58.3698H3.50349C2.57431 58.3698 1.68318 58.0266 1.02614 57.4158C0.369112 56.805 0 55.9765 0 55.1126C0 54.2488 0.369112 53.4203 1.02614 52.8095C1.68318 52.1986 2.57431 51.8555 3.50349 51.8555H162.401C163.33 51.8555 164.221 52.1986 164.879 52.8095C165.536 53.4203 165.905 54.2488 165.905 55.1126C165.905 55.9765 165.536 56.805 164.879 57.4158C164.221 58.0266 163.33 58.3698 162.401 58.3698Z" fill="#F9A826"/>
<path d="M131.866 77.9714H3.50349C2.57431 77.9714 1.68318 77.6282 1.02614 77.0174C0.369113 76.4065 0 75.5781 0 74.7142C0 73.8503 0.369113 73.0219 1.02614 72.411C1.68318 71.8002 2.57431 71.457 3.50349 71.457H131.866C132.795 71.457 133.686 71.8002 134.343 72.411C135 73.0219 135.37 73.8503 135.37 74.7142C135.37 75.5781 135 76.4065 134.343 77.0174C133.686 77.6282 132.795 77.9714 131.866 77.9714V77.9714Z" fill="#CACACA"/>
<path d="M75.8863 97.5026H3.50349C2.57431 97.5026 1.68318 97.1595 1.02614 96.5486C0.369113 95.9378 0 95.1093 0 94.2454C0 93.3816 0.369113 92.5531 1.02614 91.9423C1.68318 91.3314 2.57431 90.9883 3.50349 90.9883H75.8863C76.8154 90.9883 77.7066 91.3314 78.3636 91.9423C79.0206 92.5531 79.3897 93.3816 79.3897 94.2454C79.3897 95.1093 79.0206 95.9378 78.3636 96.5486C77.7066 97.1595 76.8154 97.5026 75.8863 97.5026V97.5026Z" fill="#CACACA"/>
<path d="M115.872 117.026H3.50381C2.57559 117.025 1.6859 116.681 1.03006 116.07C0.374223 115.46 0.00585938 114.632 0.00585938 113.769C0.00585938 112.906 0.374223 112.078 1.03006 111.468C1.6859 110.857 2.57559 110.513 3.50381 110.512H115.872C116.801 110.513 117.69 110.857 118.346 111.468C119.002 112.078 119.37 112.906 119.37 113.769C119.37 114.632 119.002 115.46 118.346 116.07C117.69 116.681 116.801 117.025 115.872 117.026V117.026Z" fill="#CACACA"/>
</svg>
