<svg width="389" height="333" viewBox="0 0 389 333" fill="none" xmlns="http://www.w3.org/2000/svg">
<path d="M12.3132 198.634C9.55131 191.461 5.42311 184.894 6.06722 176.758C13.6405 178.14 20.8234 175.205 27.7623 170.112C34.7012 165.02 41.1424 158.359 47.6324 151.853C50.1893 149.291 52.7365 146.776 55.274 144.447C59.2948 140.767 63.2864 136.684 67.3756 133.097C73.2312 127.974 79.2137 123.782 85.7818 122.974C86.9626 122.834 88.163 122.803 89.3634 122.834C97.4637 123.098 105.857 126.545 112.981 120.769L113.42 120.397C117.451 116.872 120.398 110.864 123.863 106.019C126.353 102.591 129.065 99.5936 131.953 97.0761C137.204 92.4182 142.903 88.6918 148.291 84.2979C149.665 83.1579 150.971 81.8224 152.194 80.3076L153.112 79.1431L153.317 78.8636L153.98 77.9631L154.4 77.3731L154.829 76.752L155.161 76.2552L155.698 75.4478L155.756 75.3546L156.615 74.0039L156.957 73.4604L157.552 72.4978L157.904 71.9233L159.699 68.9888C160.402 67.8554 161.124 66.7375 161.866 65.6506L162.568 64.6569L162.773 64.3775L163.339 63.6167L163.613 63.2596L164.169 62.5764L164.442 62.2348L165.282 61.2722C165.542 60.9894 165.816 60.7402 166.101 60.5269L164.345 53.4469L169.595 50L242 329.553L236.749 333L195.321 173.078L195.028 173.544C185.431 188.602 173.679 199.727 160.782 205.963H160.704C153.492 209.425 145.421 211.878 139.351 218.384C137.198 220.61 135.328 223.459 133.837 226.784C132.412 230.013 131.417 233.693 129.884 236.798C129.601 237.373 129.289 237.932 128.977 238.46C127.202 241.254 125.238 243.727 123.121 245.835L122.145 246.844C115.858 253.888 109.307 260.317 102.529 266.097C98.618 269.337 94.5399 272.038 90.3394 274.17C87.2847 275.723 84.1324 276.856 81.0777 278.394C79.0191 279.38 77.0202 280.659 75.105 282.213C69.9325 286.514 65.9605 293.252 62.2031 300.441C58.9142 306.745 55.7912 313.406 52.1803 319.15C49.9258 322.737 46.4808 326.106 43.7384 324.01C43.5492 323.859 43.3666 323.688 43.1918 323.498C43.2699 323.265 43.348 323.032 43.4164 322.784C45.5732 315.595 42.9186 306.714 39.3467 300.938C38.9758 300.348 38.5952 299.758 38.2048 299.183C37.8145 298.609 37.1215 297.631 36.5555 296.855C33.5008 292.678 30.2509 288.796 28.1331 283.409C26.5198 278.881 25.4228 273.934 24.893 268.798C23.9171 261.485 23.273 253.955 20.7746 247.729C19.1253 243.614 16.6952 240.105 14.919 236.162C13.7944 233.835 13.0561 231.096 12.7719 228.197C12.3718 223.135 13.8454 218.198 14.4017 213.167C14.5645 211.796 14.63 210.4 14.5969 209.006C14.4002 205.297 13.6144 201.728 12.3132 198.634V198.634Z" fill="url(#paint0_linear_1093_390)"/>
<path d="M377.142 137.605C379.705 130.964 383.535 124.884 382.938 117.352C375.91 118.631 369.244 115.914 362.805 111.199C356.366 106.485 350.389 100.318 344.367 94.2953C341.994 91.9235 339.63 89.5949 337.275 87.4387C333.544 84.032 329.84 80.2516 326.046 76.9312C320.612 72.1876 315.06 68.3066 308.965 67.5591C307.869 67.4297 306.756 67.401 305.642 67.4298C298.125 67.6741 290.336 70.8652 283.725 65.518L283.318 65.173C279.577 61.91 276.842 56.3472 273.627 51.8624C271.316 48.6889 268.8 45.9135 266.12 43.5828C261.247 39.2705 255.958 35.8207 250.959 31.7528C249.684 30.6974 248.471 29.461 247.337 28.0586L246.485 26.9805L246.295 26.7218L245.679 25.8881L245.29 25.3419L244.891 24.7669L244.584 24.3069L244.085 23.5594L244.031 23.4732L243.234 22.2226L242.917 21.7195L242.365 20.8283L242.039 20.2965L240.372 17.5797C239.72 16.5304 239.05 15.4955 238.362 14.4893L237.71 13.5693L237.52 13.3106L236.994 12.6062L236.741 12.2756L236.225 11.6432L235.971 11.3269L235.192 10.4357C234.95 10.1739 234.696 9.94321 234.431 9.74577L236.062 3.19109L231.189 0L164 258.809L168.872 262L207.317 113.945L207.588 114.376C216.494 128.317 227.399 138.617 239.367 144.39H239.44C246.132 147.595 253.622 149.866 259.255 155.889C261.252 157.95 262.988 160.588 264.372 163.666C265.694 166.655 266.618 170.062 268.04 172.937C268.302 173.469 268.592 173.986 268.882 174.475C270.529 177.062 272.351 179.352 274.316 181.303L275.221 182.237C281.056 188.758 287.135 194.711 293.425 200.061C297.054 203.061 300.838 205.561 304.736 207.536C307.571 208.973 310.496 210.023 313.33 211.446C315.241 212.359 317.096 213.543 318.873 214.982C323.673 218.963 327.359 225.202 330.845 231.857C333.897 237.693 336.795 243.86 340.146 249.178C342.238 252.499 345.435 255.618 347.98 253.677C348.156 253.537 348.325 253.379 348.487 253.203C348.415 252.987 348.342 252.772 348.279 252.542C346.277 245.886 348.741 237.664 352.055 232.317C352.4 231.771 352.753 231.225 353.115 230.693C353.477 230.161 354.12 229.255 354.646 228.537C357.48 224.67 360.496 221.076 362.461 216.089C363.958 211.897 364.976 207.317 365.468 202.562C366.374 195.792 366.971 188.821 369.29 183.056C370.82 179.247 373.075 175.999 374.723 172.348C375.767 170.194 376.452 167.658 376.716 164.974C377.087 160.288 375.72 155.717 375.204 151.059C375.052 149.79 374.992 148.498 375.022 147.207C375.205 143.773 375.934 140.469 377.142 137.605V137.605Z" fill="url(#paint1_linear_1093_390)"/>
<path d="M235.062 330.262L240.24 326.873L168.927 52.1021L163.749 55.4914L235.062 330.262Z" fill="#D6D8E1"/>
<path d="M170.658 260.16L165.857 257.018L231.979 2.25048L236.78 5.39299L170.658 260.16Z" fill="#D6D8E1"/>
<path d="M14.5807 234.474C17.0454 240.584 17.6909 247.981 18.6396 255.162C19.1636 260.206 20.2463 265.062 21.8378 269.507C23.9309 274.796 27.1291 278.626 30.1317 282.721C30.6794 283.465 31.2271 284.272 31.7553 285C32.2834 285.729 32.5182 286.133 32.8801 286.722C36.401 292.383 39.0124 301.098 36.89 308.17C36.8216 308.403 36.7531 308.635 36.6651 308.868C36.8372 309.052 37.0169 309.218 37.203 309.364C39.9024 311.427 43.2963 308.108 45.5165 304.588C49.0766 298.943 52.1574 292.398 55.3947 286.21C59.0918 279.138 63.0138 272.532 68.1094 268.298C69.991 266.772 71.955 265.516 73.9777 264.545C76.9803 262.994 80.0905 261.893 83.1029 260.388C87.2451 258.296 91.2665 255.645 95.1232 252.463C101.801 246.788 108.255 240.475 114.449 233.559L115.369 232.566C117.455 230.496 119.39 228.067 121.139 225.323C121.452 224.796 121.755 224.253 122.029 223.695C123.536 220.593 124.523 217.026 125.942 213.863C127.413 210.597 129.257 207.798 131.38 205.612C137.365 199.3 145.307 196.881 152.417 193.484H152.496C165.203 187.36 176.782 176.434 186.238 161.645C187.024 160.61 187.611 159.245 187.93 157.706C188.234 155.519 187.49 153.364 186.776 151.503C185.942 149.249 185.13 146.974 184.341 144.679C180.731 134.265 177.507 123.525 174.688 112.514C174.071 110.11 173.475 107.691 172.898 105.256C171.418 99.0527 170.068 92.7614 168.849 86.3822C168.448 84.2576 168.056 82.1484 167.685 80.0082C167.616 79.605 167.548 79.1708 167.47 78.7055C165.846 68.2372 163.675 44.0904 156.995 51.3329C155.002 53.5771 153.152 56.1221 151.469 58.9321C150.168 61.0257 148.896 63.1814 147.556 65.2596C146.467 66.9639 145.314 68.5641 144.104 70.0517C142.878 71.541 141.568 72.8492 140.192 73.9599C134.891 78.2713 129.267 81.8847 124.093 86.5063C121.248 88.9773 118.576 91.9197 116.122 95.2842C112.709 100.061 109.804 105.954 105.833 109.412L105.393 109.769C98.3703 115.445 90.1058 112.049 82.1249 111.785C80.9414 111.785 79.758 111.785 78.5941 111.925C72.1194 112.716 66.1924 116.841 60.461 121.866C56.4315 125.402 52.4997 129.403 48.5386 133.016C46.0348 135.296 43.531 137.762 41.0077 140.29C34.6014 146.68 28.1267 153.395 21.4466 158.218C14.7666 163.041 7.52896 166.112 0.0664334 164.747C-0.5693 172.734 3.4994 179.185 6.21838 186.242C7.51647 189.269 8.30741 192.77 8.51678 196.416C8.5484 197.782 8.4828 199.151 8.32118 200.494C7.77348 205.441 6.36507 210.28 6.71717 215.258C7.0031 218.082 7.72928 220.747 8.82976 223.013C10.5609 226.983 12.9278 230.441 14.5807 234.474Z" fill="#E6E8ED"/>
<path d="M375.428 170.283C373.133 175.924 372.532 182.752 371.649 189.38C371.162 194.036 370.154 198.519 368.672 202.622C366.724 207.504 363.747 211.04 360.952 214.819C360.442 215.506 359.932 216.251 359.441 216.923C358.949 217.596 358.73 217.969 358.394 218.513C355.116 223.738 352.685 231.783 354.661 238.311C354.725 238.526 354.788 238.74 354.87 238.955C354.71 239.125 354.543 239.278 354.37 239.413C351.857 241.317 348.698 238.254 346.631 235.004C343.317 229.793 340.449 223.752 337.436 218.04C333.994 211.512 330.344 205.414 325.6 201.506C323.849 200.097 322.021 198.938 320.138 198.041C317.343 196.61 314.448 195.593 311.644 194.205C307.788 192.273 304.044 189.826 300.455 186.889C294.239 181.651 288.231 175.823 282.465 169.439L281.609 168.522C279.667 166.612 277.866 164.37 276.237 161.837C275.946 161.35 275.664 160.849 275.409 160.334C274.007 157.471 273.087 154.178 271.767 151.258C270.398 148.243 268.681 145.66 266.705 143.642C261.133 137.815 253.741 135.582 247.122 132.447H247.049C235.221 126.794 224.442 116.708 215.64 103.057C214.908 102.101 214.363 100.841 214.065 99.421C213.783 97.4025 214.474 95.4127 215.139 93.6948C215.916 91.6143 216.672 89.5146 217.406 87.3959C220.767 77.7828 223.767 67.8691 226.392 57.7054C226.965 55.4865 227.521 53.2532 228.058 51.0057C229.436 45.2794 230.692 39.4721 231.827 33.5836C232.2 31.6224 232.565 29.6754 232.91 27.6999C232.974 27.3277 233.038 26.9268 233.111 26.4974C234.622 16.8344 236.643 -5.45504 242.861 1.23034C244.716 3.30195 246.439 5.65114 248.005 8.24499C249.216 10.1776 250.4 12.1675 251.647 14.0858C252.661 15.659 253.735 17.1361 254.861 18.5093C256.002 19.884 257.221 21.0915 258.502 22.1168C263.437 26.0965 268.672 29.4321 273.488 33.6981C276.136 35.979 278.624 38.6951 280.908 41.8008C284.085 46.21 286.789 51.6499 290.485 54.8423L290.895 55.1715C297.432 60.411 305.125 57.2759 312.554 57.0326C313.656 57.0326 314.757 57.0326 315.841 57.1614C321.868 57.8915 327.385 61.6994 332.72 66.3377C336.471 69.6017 340.131 73.2951 343.818 76.6306C346.148 78.735 348.479 81.0112 350.828 83.3446C356.791 89.2427 362.818 95.4413 369.036 99.8935C375.255 104.346 381.992 107.18 388.938 105.92C389.53 113.293 385.743 119.248 383.212 125.762C382.003 128.556 381.267 131.788 381.072 135.153C381.043 136.415 381.104 137.678 381.254 138.918C381.764 143.484 383.075 147.951 382.747 152.546C382.481 155.152 381.805 157.613 380.781 159.704C379.169 163.369 376.966 166.561 375.428 170.283Z" fill="#E6E8ED"/>
<path d="M145 69.2688L150.136 89L167 77.5038C165.481 67.5116 163.438 44.3257 157.151 51.28C152.594 56.3133 149.51 63.6696 145 69.2688Z" fill="#F9A826"/>
<path d="M255 18.2807L250.097 37L234 26.0933C235.45 16.6136 237.4 -5.38336 243.402 1.21432C247.751 5.98951 250.695 12.9686 255 18.2807Z" fill="#F9A826"/>
<path d="M106 109.416L108.327 118L129 104.502L124.247 87C121.403 89.4164 118.731 92.2939 116.278 95.5842C112.845 100.271 109.98 106.034 106 109.416Z" fill="#F9A826"/>
<path d="M290 55.4158L287.875 64L269 50.502L273.339 33C275.937 35.4164 278.376 38.2939 280.616 41.5842C283.75 46.2706 286.366 52.0338 290 55.4158Z" fill="#F9A826"/>
<path d="M61 121.388L67.1071 146L87 131.776L81.8433 111C80.7047 111 79.566 111 78.4462 111.144C72.2168 111.943 66.5143 116.194 61 121.388Z" fill="#F9A826"/>
<path d="M332 66.4977L326.363 89L308 75.9954L312.76 57C313.811 57 314.862 57 315.896 57.1315C321.646 57.8621 326.91 61.7489 332 66.4977Z" fill="#F9A826"/>
<path d="M21 157.876L25.0776 173L46 159.237L40.8139 140C34.3412 146.433 27.7795 153.113 21 157.876Z" fill="#F9A826"/>
<path d="M368 100.793L364.412 115L346 102.071L350.564 84C356.26 90.0431 362.034 96.3186 368 100.793Z" fill="#F9A826"/>
<path d="M137.461 136.806L158.127 122.996L149.431 90.1762L128.765 103.986L137.461 136.806Z" fill="#F9A826"/>
<path d="M261.152 80.7887L241.99 67.9844L250.053 37.5538L269.215 50.3581L261.152 80.7887Z" fill="#F9A826"/>
<path d="M96.1325 164.423L116.799 150.613L108.103 117.793L87.4367 131.603L96.1325 164.423Z" fill="#F9A826"/>
<path d="M299.474 106.392L280.312 93.5879L288.375 63.1573L307.537 75.9616L299.474 106.392Z" fill="#F9A826"/>
<path d="M54.8083 192.054L75.4746 178.244L66.7788 145.424L46.1125 159.234L54.8083 192.054Z" fill="#F9A826"/>
<path d="M337.789 132.011L318.627 119.207L326.69 88.7765L345.851 101.581L337.789 132.011Z" fill="#F9A826"/>
<path d="M8.10637 200.349L13.289 220L34 206.075L25.2806 173L6 185.955C7.30029 189.009 8.09256 192.541 8.30229 196.218C8.33471 197.603 8.26899 198.988 8.10637 200.349V200.349Z" fill="#F9A826"/>
<path d="M380.969 140.021L375.971 158L356 145.26L364.408 115L383 126.852C381.746 129.646 380.982 132.878 380.78 136.242C380.749 137.509 380.812 138.776 380.969 140.021V140.021Z" fill="#F9A826"/>
<path d="M159 123.039L167.673 156L185 144.337C181.403 133.867 178.191 123.07 175.382 112L159 123.039Z" fill="#F9A826"/>
<path d="M242 67.2863L233.994 98L218 87.1325C221.32 77.3763 224.285 67.315 226.879 57L242 67.2863Z" fill="#F9A826"/>
<path d="M125.496 183.439L146.162 169.629L137.466 136.809L116.8 150.619L125.496 183.439Z" fill="#F9A826"/>
<path d="M272.248 124.027L253.086 111.223L261.149 80.7921L280.31 93.5964L272.248 124.027Z" fill="#F9A826"/>
<path d="M84.1599 211.058L104.826 197.248L96.1304 164.428L75.4641 178.238L84.1599 211.058Z" fill="#F9A826"/>
<path d="M310.572 149.631L291.41 136.826L299.473 106.396L318.635 119.2L310.572 149.631Z" fill="#F9A826"/>
<path d="M42.8376 238.702L63.5039 224.893L54.8081 192.073L34.1418 205.882L42.8376 238.702Z" fill="#F9A826"/>
<path d="M348.888 175.265L329.727 162.461L337.789 132.03L356.951 144.835L348.888 175.265Z" fill="#F9A826"/>
<path d="M147 169.713L153.087 193C160.114 189.558 166.815 184.576 173 178.194L167.2 156L147 169.713Z" fill="#F9A826"/>
<path d="M254 111.343L248.147 134C241.39 130.651 234.947 125.804 229 119.594L234.577 98L254 111.343Z" fill="#F9A826"/>
<path d="M105 196.925L113.874 230L121.561 224.915C121.88 224.383 122.189 223.836 122.468 223.272C124.004 220.143 125.011 216.545 126.456 213.353C127.956 210.058 129.836 207.235 132 205.029L126.097 183L105 196.925Z" fill="#F9A826"/>
<path d="M291 137.443L283.112 167L276.279 162.456C275.996 161.981 275.721 161.491 275.473 160.988C274.108 158.192 273.213 154.976 271.928 152.124C270.595 149.18 268.923 146.657 267 144.686L272.247 125L291 137.443Z" fill="#F9A826"/>
<path d="M72.2087 257.685L92.875 243.875L84.1792 211.055L63.5129 224.865L72.2087 257.685Z" fill="#F9A826"/>
<path d="M321.656 192.869L302.494 180.064L310.557 149.634L329.719 162.438L321.656 192.869Z" fill="#F9A826"/>
<path d="M22 253.098L29.8389 283.671C30.3795 284.432 30.9201 285.255 31.4414 286L51 272.488L42.4081 239L22 253.098Z" fill="#F9A826"/>
<path d="M368 187.599L360.702 214.919C360.198 215.599 359.695 216.335 359.21 217L341 204.925L348.999 175L368 187.599Z" fill="#F9A826"/>
<path d="M18.548 255L22 252.638L13.5362 220L9 223.088C10.6833 226.948 13.0132 230.375 14.5918 234.389C16.9978 240.487 17.6255 247.852 18.548 255Z" fill="#F9A826"/>
<path d="M93 244.355L95.1468 253C101.661 247.098 107.957 240.532 114 233.339L113.17 230L93 244.355Z" fill="#F9A826"/>
<path d="M302 180.107L300.058 188C294.164 182.611 288.468 176.616 283 170.048L283.751 167L302 180.107Z" fill="#5A5773"/>
<path d="M51 271.685L54.9337 286C58.7269 278.988 62.7509 272.438 67.9791 268.241C69.9096 266.728 71.9246 265.482 74 264.519L72.2038 258L51 271.685Z" fill="#F9A826"/>
<path d="M341 205.196L337.408 219C333.945 212.239 330.271 205.923 325.497 201.875C323.735 200.416 321.895 199.215 320 198.287L321.64 192L341 205.196Z" fill="#F9A826"/>
<defs>
<linearGradient id="paint0_linear_1093_390" x1="241.98" y1="191.508" x2="5.9989" y2="191.508" gradientUnits="userSpaceOnUse">
<stop stop-color="#808080" stop-opacity="0.25"/>
<stop offset="0.54" stop-color="#808080" stop-opacity="0.12"/>
<stop offset="1" stop-color="#808080" stop-opacity="0.1"/>
</linearGradient>
<linearGradient id="paint1_linear_1093_390" x1="164.018" y1="131.007" x2="383.001" y2="131.007" gradientUnits="userSpaceOnUse">
<stop stop-color="#808080" stop-opacity="0.25"/>
<stop offset="0.54" stop-color="#808080" stop-opacity="0.12"/>
<stop offset="1" stop-color="#808080" stop-opacity="0.1"/>
</linearGradient>
</defs>
</svg>
